<?xml version="1.0" encoding="UTF-8" standalone="no"?>
<svg
   xmlns:dc="http://purl.org/dc/elements/1.1/"
   xmlns:cc="http://creativecommons.org/ns#"
   xmlns:rdf="http://www.w3.org/1999/02/22-rdf-syntax-ns#"
   xmlns:svg="http://www.w3.org/2000/svg"
   xmlns="http://www.w3.org/2000/svg"
   xmlns:sodipodi="http://sodipodi.sourceforge.net/DTD/sodipodi-0.dtd"
   xmlns:inkscape="http://www.inkscape.org/namespaces/inkscape"
   version="1.0"
   width="100"
   height="100"
   viewBox="0 0 80 80"
   preserveAspectRatio="xMidYMid meet"
   id="svg2"
   inkscape:version="0.48.4 r9939"
   sodipodi:docname="ff.svg">
  <title
     id="title3035">Old Nestlé logo</title>
  <defs
     id="defs56" />
  <sodipodi:namedview
     pagecolor="#ffffff"
     bordercolor="#666666"
     borderopacity="1"
     objecttolerance="10"
     gridtolerance="10"
     guidetolerance="10"
     inkscape:pageopacity="0"
     inkscape:pageshadow="2"
     inkscape:window-width="1600"
     inkscape:window-height="844"
     id="namedview54"
     showgrid="false"
     inkscape:showpageshadow="false"
     inkscape:zoom="1"
     inkscape:cx="77.323423"
     inkscape:cy="31.249216"
     inkscape:window-x="-4"
     inkscape:window-y="-4"
     inkscape:window-maximized="1"
     inkscape:current-layer="svg2" />
  <metadata
     id="metadata4">
Created by potrace 1.13, written by Peter Selinger 2001-2015
<rdf:RDF>
  <cc:Work
     rdf:about="">
    <dc:format>image/svg+xml</dc:format>
    <dc:type
       rdf:resource="http://purl.org/dc/dcmitype/StillImage" />
    <dc:title>Old Nestlé logo</dc:title>
  </cc:Work>
</rdf:RDF>
</metadata>
  <g
     transform="matrix(0.00987429,0,0,-0.00967409,-15.249182,83.741016)"
     id="g6"
     style="fill:#000000;stroke:none">
    <path
       d="m 7559,8303 c -25,-4 -26,-8 -37,-106 -29,-249 -142,-543 -282,-735 l -31,-43 -63,58 c -262,246 -415,334 -616,358 -70,8 -180,-9 -246,-39 -102,-47 -188,-151 -239,-289 -15,-40 -33,-86 -40,-102 -7,-17 -67,-96 -134,-175 -66,-79 -121,-150 -121,-158 0,-12 10,-13 48,-9 120,15 172,19 187,14 12,-5 4,-23 -40,-92 -73,-113 -73,-115 7,-90 26,7 97,21 157,31 102,15 114,15 185,0 99,-23 162,-64 199,-133 l 28,-52 -123,-112 c -68,-61 -179,-158 -248,-216 l -125,-104 -400,-4 c -220,-1 -421,-6 -447,-10 -32,-5 -48,-4 -48,3 0,6 25,38 56,71 93,101 239,180 433,234 109,30 108,44 -6,98 l -88,41 98,49 c 93,47 117,72 80,83 -196,56 -265,82 -333,126 -41,27 -92,55 -114,64 -44,18 -45,17 17,125 110,193 270,304 547,380 94,26 90,45 -22,90 -48,20 -88,38 -88,41 0,3 41,26 90,50 61,30 90,49 88,59 -2,10 -50,30 -135,58 -93,29 -151,55 -200,87 -188,125 -403,95 -576,-80 -50,-50 -87,-103 -213,-300 -55,-86 -176,-226 -267,-306 -47,-42 -157,-130 -245,-196 -174,-132 -333,-266 -480,-406 l -95,-91 -79,85 c -44,47 -139,157 -211,245 -181,219 -209,247 -244,243 -24,-3 -28,-8 -31,-39 -3,-31 7,-51 64,-135 77,-112 184,-256 268,-358 31,-38 55,-74 53,-80 -2,-6 -161,-47 -353,-91 -228,-53 -368,-90 -404,-107 -73,-36 -130,-84 -130,-110 0,-19 4,-20 53,-14 28,4 135,23 237,42 269,52 562,96 571,87 5,-5 -26,-51 -68,-104 l -76,-96 -97,-7 c -73,-5 -108,-13 -145,-31 -34,-18 -65,-25 -105,-25 -37,0 -69,-7 -95,-21 -22,-11 -61,-27 -87,-35 -27,-8 -67,-33 -98,-61 -50,-45 -52,-49 -47,-87 3,-23 8,-48 12,-58 6,-14 1,-16 -32,-11 -36,5 -42,2 -86,-46 -64,-69 -63,-86 19,-250 36,-73 65,-134 63,-135 -2,-2 -22,-7 -44,-13 -50,-11 -53,-24 -25,-110 25,-78 55,-121 112,-158 l 42,-28 -28,-23 c -15,-13 -38,-24 -52,-24 -13,0 -24,-5 -24,-11 0,-37 30,-97 72,-145 37,-43 48,-63 48,-89 0,-28 7,-39 39,-62 59,-42 66,-58 41,-97 -11,-19 -20,-51 -20,-74 0,-32 6,-45 30,-65 35,-30 37,-30 160,-52 92,-16 170,-41 170,-55 0,-7 -290,-64 -418,-82 l -83,-11 -57,-61 c -64,-69 -107,-145 -145,-256 -52,-150 -60,-198 -61,-345 -1,-127 1,-145 23,-192 13,-29 41,-69 63,-89 50,-45 165,-101 241,-116 l 58,-12 37,-71 c 62,-117 173,-205 307,-239 139,-37 128,-43 628,382 143,121 426,285 660,382 l 77,32 168,-36 167,-37 230,16 c 272,18 539,19 886,4 140,-6 315,-12 389,-12 l 135,-2 110,46 c 161,68 529,241 607,285 113,65 248,165 330,245 75,73 94,108 67,124 -6,4 14,32 49,69 86,89 108,140 80,185 -9,16 -7,30 15,79 30,67 32,99 13,190 -13,61 -13,65 11,108 14,24 28,44 33,44 13,0 641,-642 655,-671 26,-50 73,-485 131,-1213 12,-149 36,-186 118,-186 66,0 88,13 241,138 l 126,104 152,-1 c 142,-2 155,0 171,18 27,30 18,110 -34,279 -23,78 -40,145 -37,148 3,3 34,-10 70,-30 73,-41 97,-45 97,-17 0,23 -172,478 -288,761 -245,600 -503,1192 -628,1442 -173,345 -387,659 -652,953 -53,59 -77,92 -69,97 7,3 102,25 212,47 110,23 265,59 345,81 149,40 312,74 410,85 l 56,6 11,132 c 7,72 9,134 7,137 -3,3 -70,7 -148,8 -111,3 -169,-1 -263,-17 -67,-12 -150,-21 -185,-20 -61,0 -149,26 -155,45 -3,10 29,32 322,229 116,77 288,186 382,243 95,56 174,110 177,120 6,19 21,143 31,245 5,49 3,67 -5,67 -7,0 -47,-21 -89,-47 -160,-97 -527,-289 -586,-307 -30,-9 -48,7 -40,35 4,13 45,61 91,107 46,46 84,87 84,91 0,13 -137,141 -152,141 -42,0 -198,-141 -358,-325 -141,-161 -196,-215 -219,-215 -36,0 -32,101 14,380 7,47 17,115 21,153 l 6,67 -103,-1 c -57,-1 -116,-4 -130,-6 z m 115,-91 c 3,-5 -8,-98 -25,-208 -49,-320 -35,-394 73,-394 84,0 146,44 276,195 185,215 313,335 336,316 11,-9 3,-22 -42,-69 -79,-82 -112,-137 -112,-188 0,-66 24,-88 99,-89 34,-1 64,-4 66,-7 3,-3 8,-22 10,-43 l 5,-38 -21,26 c -12,17 -30,27 -46,27 -23,0 -25,-3 -18,-27 3,-16 9,-44 12,-63 l 5,-35 -18,25 c -36,52 -79,90 -101,90 -29,0 -29,-15 1,-81 14,-29 23,-57 20,-61 -3,-5 -24,12 -46,37 -61,69 -115,58 -73,-15 24,-42 18,-54 -15,-27 -32,28 -68,42 -78,33 -3,-4 5,-30 17,-59 13,-28 24,-62 26,-75 3,-19 -3,-16 -47,23 -72,64 -130,59 -78,-7 11,-14 24,-39 30,-54 10,-26 7,-25 -37,18 -51,49 -103,72 -103,45 0,-8 7,-20 16,-27 18,-15 59,-85 68,-116 4,-14 -14,-1 -52,37 -92,92 -121,75 -56,-32 36,-60 56,-113 47,-123 -3,-3 -28,20 -57,51 -55,61 -121,113 -143,113 -24,0 -14,-30 31,-93 53,-76 79,-124 68,-131 -4,-3 -21,11 -36,31 -29,36 -110,93 -133,93 -22,0 -15,-25 20,-71 40,-52 57,-82 62,-111 4,-21 4,-21 -18,1 -37,34 -50,28 -44,-25 l 4,-46 -135,135 -135,135 57,96 c 128,214 216,458 256,706 7,41 14,78 17,83 6,10 41,9 47,-1 z m 1240,-160 c 6,-10 -14,-92 -23,-92 -3,0 -15,7 -25,15 -28,21 -44,19 -48,-7 -2,-17 -9,-22 -25,-20 -17,2 -23,-2 -23,-17 0,-26 -15,-34 -30,-16 -7,8 -21,15 -32,15 -17,0 -20,-5 -16,-35 4,-31 2,-33 -12,-20 -27,24 -48,18 -52,-14 l -3,-30 -28,25 -28,24 58,27 c 32,16 62,32 68,36 14,11 198,114 207,116 4,0 9,-3 12,-7 z M 5461,7843 c 46,-23 96,-45 112,-49 15,-3 27,-10 27,-15 0,-5 -29,-24 -65,-41 -84,-41 -84,-57 -2,-93 l 62,-27 -78,-28 c -103,-36 -174,-87 -250,-177 -80,-96 -129,-170 -175,-265 -22,-45 -43,-78 -52,-78 -24,0 -139,-58 -180,-90 l -37,-29 -43,44 c -24,25 -52,45 -61,45 -53,0 -62,-30 -29,-101 29,-66 26,-115 -15,-196 -25,-51 -56,-90 -108,-140 -111,-106 -619,-435 -639,-415 -16,16 1,50 50,97 43,41 45,46 34,70 -11,23 -9,32 7,58 11,18 34,41 50,52 33,21 37,35 21,65 -8,15 -2,28 30,69 44,56 49,71 22,71 -27,0 -131,-54 -176,-91 -44,-37 -86,-118 -86,-169 0,-29 -9,-44 -50,-83 -52,-51 -70,-92 -70,-164 0,-29 -7,-50 -24,-70 -35,-43 -46,-68 -46,-109 0,-40 23,-74 50,-74 20,0 704,429 806,506 98,74 194,179 252,277 143,242 315,315 481,203 27,-18 72,-41 100,-52 28,-10 51,-21 51,-24 0,-3 -31,-21 -70,-40 -38,-19 -70,-40 -70,-48 0,-7 28,-26 63,-42 l 62,-28 -30,-11 c -72,-27 -93,-37 -150,-70 -75,-43 -185,-153 -249,-249 -69,-105 -159,-290 -200,-413 -37,-111 -44,-167 -24,-187 14,-14 67,-16 86,-3 7,4 31,57 53,117 51,142 108,261 127,269 8,3 85,15 171,27 177,24 351,26 686,10 287,-15 698,-60 786,-88 20,-6 73,-120 65,-140 -7,-18 -25,-18 -72,2 -49,21 -164,15 -214,-11 -19,-10 -52,-36 -73,-58 -45,-48 -66,-53 -389,-89 -151,-16 -208,-26 -208,-35 0,-17 57,-51 98,-59 19,-4 30,-10 25,-14 -15,-14 -107,-40 -193,-55 -47,-8 -115,-24 -152,-36 -61,-19 -68,-24 -68,-47 0,-29 26,-62 49,-62 27,-1 475,72 488,79 6,3 38,24 70,46 85,58 259,121 386,140 l 47,7 16,-37 c 8,-21 13,-43 11,-50 -7,-16 -181,-87 -291,-119 -48,-14 -157,-37 -243,-52 -86,-14 -209,-39 -272,-56 -64,-17 -156,-40 -204,-51 -77,-19 -87,-24 -85,-41 6,-41 47,-51 151,-38 51,6 123,21 158,32 38,12 115,25 189,30 69,6 156,16 193,24 37,7 70,9 73,5 8,-13 -55,-54 -188,-124 -108,-56 -134,-75 -182,-130 -31,-35 -72,-73 -91,-85 -19,-12 -35,-29 -35,-37 0,-26 74,-11 200,41 230,95 298,119 445,156 134,34 303,88 346,110 19,11 55,77 46,86 -3,4 -68,-10 -144,-29 -164,-43 -292,-67 -298,-58 -2,4 16,33 41,65 50,64 111,107 187,132 l 50,17 19,-27 c 11,-14 26,-26 34,-26 23,0 44,55 45,117 0,57 0,58 17,34 9,-13 49,-90 89,-173 l 72,-149 -56,-36 c -131,-84 -270,-129 -498,-162 -213,-31 -195,-25 -195,-72 l 0,-40 -76,-36 c -186,-85 -436,-115 -799,-94 -115,6 -234,15 -262,18 -49,5 -53,4 -53,-15 0,-11 15,-32 33,-46 28,-23 31,-28 20,-46 -7,-11 -13,-27 -13,-35 0,-18 20,-20 390,-20 305,0 335,-5 384,-67 l 23,-30 149,35 c 82,19 171,38 199,42 79,11 175,69 175,106 0,24 0,24 -109,-1 -107,-24 -231,-37 -231,-24 0,5 34,22 76,37 41,16 111,53 156,83 78,52 84,54 147,54 83,0 236,17 278,31 18,6 66,40 106,77 75,68 193,145 208,136 5,-3 25,-34 44,-69 35,-62 38,-85 11,-85 -7,0 -69,-29 -138,-63 -108,-55 -136,-65 -198,-71 -65,-6 -82,-12 -156,-59 -46,-28 -84,-58 -84,-64 0,-19 123,-17 217,3 42,8 121,35 175,60 114,51 199,74 278,74 89,0 90,-11 8,-69 -122,-86 -167,-103 -292,-113 -132,-10 -152,-15 -286,-66 -131,-50 -283,-83 -420,-89 -149,-6 -150,-7 -150,-48 0,-33 2,-35 33,-36 17,0 41,-4 52,-9 17,-7 11,-12 -38,-35 -71,-33 -261,-54 -484,-55 -135,0 -143,1 -157,22 -9,12 -16,30 -16,40 0,22 11,22 -227,-3 -120,-13 -234,-19 -290,-16 -67,3 -93,1 -93,-8 0,-13 103,-52 169,-63 97,-16 33,-59 -72,-48 -97,11 -177,32 -308,81 -134,50 -232,68 -315,59 -110,-13 -55,-47 202,-124 73,-22 164,-55 203,-74 81,-38 190,-61 260,-53 49,5 88,-8 129,-46 30,-28 28,-36 -13,-53 -47,-19 -98,-18 -251,7 -144,24 -208,21 -202,-9 2,-12 43,-32 128,-64 79,-29 126,-52 128,-62 2,-9 -1,-16 -6,-16 -38,0 -217,38 -309,66 -62,19 -118,34 -124,34 -11,0 -10,-20 4,-78 3,-12 8,-26 11,-31 3,-4 -28,25 -68,65 -102,102 -149,98 -95,-9 25,-49 39,-93 32,-101 -3,-2 -31,30 -63,73 -112,152 -182,164 -109,19 68,-135 74,-211 7,-95 -58,100 -182,217 -205,193 -4,-3 26,-70 66,-149 43,-83 75,-160 78,-185 3,-24 11,-46 18,-48 17,-7 165,43 196,65 14,11 50,24 80,29 30,6 88,20 129,31 88,25 172,26 295,6 149,-24 177,-20 187,30 6,34 91,40 424,25 302,-12 329,-11 417,17 74,23 61,40 -40,48 -102,8 -133,14 -133,26 0,15 72,27 225,39 140,10 507,53 567,66 37,7 46,40 19,65 -12,11 -21,22 -21,24 0,14 60,39 180,76 74,22 161,52 192,65 67,28 334,174 394,215 53,36 78,87 71,146 l -5,44 57,28 c 87,44 228,94 244,88 9,-3 13,-13 10,-25 -3,-13 4,-26 21,-40 l 26,-20 -57,-52 c -88,-78 -156,-121 -201,-127 -30,-4 -51,-16 -82,-48 -49,-50 -48,-71 5,-81 19,-3 37,-9 40,-13 7,-12 -118,-153 -153,-174 -18,-10 -52,-25 -77,-32 -56,-17 -52,-3 15,45 27,19 54,45 59,58 17,35 25,102 13,102 -5,0 -50,-25 -98,-56 -143,-90 -225,-126 -370,-163 -28,-8 -44,-19 -52,-36 -23,-50 -17,-58 37,-50 74,10 70,-10 -7,-30 -127,-34 -328,-103 -413,-141 -81,-37 -88,-38 -204,-39 -129,-2 -165,-8 -165,-30 0,-16 25,-22 150,-35 153,-16 202,-13 277,16 117,45 234,84 358,120 166,48 426,139 511,180 63,30 77,41 136,121 81,107 233,260 242,244 4,-6 -19,-39 -55,-76 -57,-60 -61,-67 -55,-99 6,-32 3,-37 -56,-91 -77,-70 -205,-150 -275,-172 -44,-14 -54,-22 -63,-49 -14,-40 -33,-48 -70,-29 -43,22 -50,19 -50,-25 0,-50 -21,-62 -54,-31 -32,30 -46,26 -46,-13 0,-44 -11,-51 -43,-26 -38,30 -54,25 -61,-20 -7,-45 -21,-50 -59,-20 -35,27 -47,25 -47,-9 0,-16 -7,-34 -15,-41 -13,-10 -22,-8 -53,14 -49,33 -61,33 -68,-4 -9,-45 -26,-54 -57,-30 -34,27 -57,26 -57,-3 0,-34 -9,-38 -42,-21 -33,17 -58,13 -58,-11 0,-20 -19,-19 -42,2 -18,16 -21,16 -46,1 -24,-15 -29,-15 -54,0 -23,14 -32,14 -48,4 -28,-17 -38,-15 -45,8 -8,24 -22,25 -46,4 -16,-14 -19,-13 -40,15 -26,35 -49,41 -49,12 0,-10 -7,-24 -15,-31 -13,-11 -20,-9 -38,9 -29,26 -43,27 -50,1 -7,-28 -22,-25 -47,10 -24,34 -50,40 -50,11 0,-30 -22,-37 -38,-13 -17,26 -39,28 -63,6 -17,-16 -20,-15 -36,15 -20,34 -43,41 -43,14 0,-10 -5,-25 -10,-33 -8,-12 -13,-11 -33,8 -29,27 -34,27 -57,0 l -18,-23 -24,23 c -31,28 -42,28 -56,-4 -13,-27 -27,-25 -50,8 -15,21 -42,24 -42,4 0,-7 -7,-19 -15,-26 -13,-11 -20,-9 -43,13 -27,26 -52,35 -52,19 0,-5 -6,-17 -14,-28 -14,-18 -15,-18 -36,9 -28,36 -42,34 -64,-7 -11,-20 -34,-42 -55,-52 -35,-17 -41,-17 -196,9 -88,15 -177,27 -199,27 -23,0 -112,-28 -225,-71 -195,-75 -318,-118 -413,-144 -46,-13 -61,-23 -79,-51 -24,-40 -59,-60 -109,-65 -32,-4 -37,-1 -52,31 -9,19 -20,47 -23,62 -6,24 -3,29 20,38 14,5 46,10 69,10 28,0 52,7 69,20 14,11 36,20 50,20 41,0 157,40 157,54 0,7 -24,57 -52,112 -37,68 -73,120 -118,166 -98,102 -130,89 -65,-26 42,-75 87,-193 77,-200 -5,-3 -28,28 -52,67 -55,88 -116,157 -141,157 -25,0 -25,-33 0,-74 30,-48 61,-135 51,-141 -4,-3 -23,21 -41,52 -39,70 -87,123 -111,123 -25,0 -22,-25 11,-95 16,-33 27,-64 24,-69 -3,-4 -24,14 -46,40 -22,27 -86,94 -141,149 -104,104 -164,143 -236,152 -58,8 -52,-15 16,-68 60,-46 130,-136 166,-215 13,-27 43,-74 66,-103 80,-101 132,-231 132,-331 0,-102 -103,-233 -239,-302 -144,-75 -239,-36 -328,134 l -38,73 -71,1 c -53,1 -84,7 -126,26 -68,32 -93,58 -114,121 -54,164 -25,387 77,587 68,135 49,125 321,165 131,19 263,35 293,35 39,0 95,-13 193,-47 166,-56 256,-63 486,-39 82,9 224,16 316,16 179,0 280,13 280,37 0,8 -29,27 -65,43 -58,26 -82,30 -232,40 -227,14 -343,35 -343,61 0,5 18,22 40,37 31,21 39,33 37,52 -2,24 -5,25 -72,25 -38,-1 -110,-7 -160,-14 -86,-12 -167,-8 -193,8 -9,5 -7,12 8,26 29,27 25,42 -17,56 -97,31 -203,97 -203,126 0,18 98,71 145,78 32,5 54,0 110,-25 106,-47 316,-117 440,-144 188,-42 343,-53 880,-59 129,-2 130,-2 133,21 6,42 -13,52 -107,53 -152,1 -196,34 -116,88 31,20 41,34 43,59 3,26 0,32 -17,32 -11,0 -98,-30 -193,-67 -162,-63 -178,-67 -248,-65 -125,2 -514,83 -493,102 4,4 80,17 168,29 175,23 235,38 235,57 0,25 -39,34 -152,34 -132,0 -152,7 -113,39 34,26 73,37 201,56 79,12 156,14 377,8 260,-6 277,-5 277,11 0,10 -8,30 -19,44 -46,67 -46,68 13,101 l 54,31 86,-31 c 47,-18 86,-35 86,-38 0,-4 -20,-24 -45,-44 -25,-21 -45,-45 -45,-54 0,-24 166,-10 315,26 211,52 476,165 484,206 4,21 -7,21 -239,-20 -120,-21 -174,-26 -240,-22 -80,5 -174,29 -185,47 -3,5 22,21 55,36 71,32 134,95 151,153 7,23 9,44 6,47 -4,4 -46,-12 -94,-36 -174,-85 -308,-120 -454,-120 -77,0 -89,-13 -44,-48 14,-11 25,-22 25,-26 0,-12 -84,-27 -158,-28 -82,-2 -147,14 -156,37 -6,17 33,50 80,67 37,13 43,28 19,48 -18,15 -103,9 -225,-15 -172,-35 -447,-18 -728,45 -116,25 -142,26 -142,2 0,-27 59,-79 110,-97 104,-37 349,-77 575,-95 118,-9 135,-13 178,-40 31,-19 68,-32 103,-36 30,-4 54,-10 54,-14 0,-10 -91,-27 -215,-41 -117,-13 -345,-16 -427,-5 -39,5 -58,4 -58,-3 0,-6 16,-32 35,-57 20,-26 34,-52 32,-58 -8,-24 -69,-47 -153,-58 -106,-13 -223,-1 -345,38 -74,23 -79,27 -62,40 24,19 138,54 174,54 38,0 38,23 -1,51 l -29,22 52,31 c 28,17 53,39 55,49 3,15 -5,17 -70,17 -40,0 -125,-7 -188,-15 -80,-11 -149,-14 -227,-9 l -113,7 0,-30 c 0,-45 25,-60 113,-68 59,-5 84,-12 99,-27 25,-25 15,-36 -43,-44 -34,-5 -75,2 -165,26 -65,17 -123,36 -129,41 -5,5 -15,36 -21,69 -7,32 -24,76 -38,97 -25,36 -35,93 -17,93 5,0 37,-11 72,-24 90,-34 207,-49 306,-41 108,9 108,25 1,58 -152,48 -373,178 -449,265 -30,34 -39,82 -15,82 37,0 87,-29 146,-84 36,-34 91,-73 121,-88 113,-55 349,-108 349,-79 0,6 -11,34 -25,61 l -25,50 27,6 c 15,4 64,2 108,-5 44,-6 123,-16 175,-22 52,-5 134,-21 183,-35 218,-64 425,-45 435,39 3,23 -1,27 -35,32 -253,43 -945,194 -960,209 -9,8 121,198 244,357 288,369 521,602 862,863 185,141 365,301 434,383 22,26 81,111 132,189 165,252 282,350 411,342 46,-3 80,-14 145,-45 z m 1168,-186 c 136,-55 297,-173 443,-324 57,-59 258,-265 448,-458 424,-430 493,-513 659,-805 148,-260 522,-1023 508,-1037 -17,-16 -466,307 -680,489 -54,46 -75,58 -103,58 -23,0 -34,-5 -34,-15 0,-24 354,-372 495,-486 127,-104 282,-218 399,-295 52,-35 62,-47 87,-108 16,-38 27,-71 25,-74 -3,-2 -54,31 -113,74 -317,231 -587,462 -904,771 -145,143 -146,143 -192,143 -29,0 -47,-4 -47,-11 0,-35 336,-398 543,-586 267,-244 446,-393 705,-587 78,-58 142,-113 142,-122 0,-17 -48,14 -250,160 -272,197 -556,436 -844,709 -87,83 -176,159 -197,168 -69,31 -191,161 -366,389 -233,304 -338,522 -352,732 -8,115 -22,148 -65,148 -126,0 -108,-267 35,-538 85,-161 186,-303 427,-605 74,-92 132,-170 129,-173 -3,-3 -15,0 -27,6 -11,6 -35,10 -53,8 -28,-3 -36,-10 -62,-63 -33,-66 -107,-145 -135,-145 -37,0 -70,24 -101,71 l -30,48 39,39 c 47,47 85,110 102,168 l 12,41 -74,94 c -169,215 -248,335 -323,492 -77,160 -106,257 -170,562 -62,294 -73,323 -148,392 -68,63 -159,81 -323,66 -66,-6 -91,-6 -90,3 1,6 25,42 54,81 47,63 62,93 47,93 -3,0 -50,-7 -106,-15 -55,-8 -105,-13 -110,-9 -5,3 20,41 56,84 36,43 65,84 65,91 0,8 14,43 31,79 50,107 126,186 206,216 54,21 166,12 242,-19 z m 1500,-477 c 58,-16 146,-12 291,14 158,28 281,40 310,31 12,-4 20,-15 20,-29 0,-33 -11,-39 -27,-16 -19,26 -39,25 -47,-2 -4,-18 -8,-20 -18,-10 -18,18 -35,14 -42,-10 l -6,-23 -15,23 c -21,29 -45,29 -45,-1 0,-33 -11,-40 -27,-17 -21,29 -40,24 -48,-12 l -7,-33 -14,33 c -13,29 -44,45 -44,23 0,-5 -5,-22 -11,-37 l -10,-28 -12,24 c -7,14 -20,26 -30,28 -13,3 -17,-4 -17,-32 0,-44 -17,-56 -26,-19 -15,61 -54,75 -54,19 0,-19 -4,-38 -10,-41 -5,-3 -10,3 -10,13 0,11 -7,25 -15,32 -23,19 -45,4 -45,-29 0,-16 -4,-33 -10,-36 -5,-3 -10,2 -10,12 0,25 -28,63 -46,63 -10,0 -14,-12 -14,-38 0,-57 -13,-59 -30,-5 -18,57 -50,73 -50,25 0,-42 -11,-46 -31,-12 -11,17 -26,30 -35,30 -14,0 -15,-8 -10,-52 6,-56 -7,-101 -19,-63 -13,43 -32,70 -49,73 -17,4 -18,-1 -13,-42 7,-51 -4,-68 -21,-31 -16,35 -42,32 -42,-4 0,-33 -16,-49 -33,-32 -17,17 -37,13 -37,-8 0,-27 -13,-33 -35,-17 -18,13 -17,15 16,43 19,17 97,84 174,151 l 139,120 40,-34 c 22,-19 56,-39 75,-44 z M 6566,6576 c 7,-29 -1,-46 -22,-46 -19,0 -18,-22 4,-51 9,-13 23,-35 31,-48 12,-22 10,-22 -27,7 -74,59 -99,26 -39,-51 58,-76 63,-96 11,-46 -99,94 -146,93 -86,-2 47,-74 45,-83 -10,-35 -55,48 -98,60 -98,29 0,-10 7,-27 15,-37 22,-29 19,-36 -12,-31 -16,2 -49,7 -75,10 -27,4 -48,10 -48,15 0,9 331,310 342,310 4,0 10,-11 14,-24 z M 3154,5867 c -40,-65 -48,-72 -82,-77 -34,-5 -37,-8 -40,-40 -4,-52 26,-92 94,-125 48,-24 55,-30 36,-33 -12,-2 -46,4 -74,14 -132,44 -163,70 -136,113 12,19 9,25 -32,61 l -45,40 24,20 c 13,11 38,20 56,20 19,0 48,11 71,27 37,26 152,65 166,57 4,-3 -13,-37 -38,-77 z m 3717,-154 c 44,-67 119,-165 207,-273 l 23,-28 -23,-27 c -14,-16 -29,-24 -38,-20 -13,5 -228,362 -245,408 -5,12 -2,17 8,17 9,0 39,-35 68,-77 z m 693,-593 29,-11 -44,-46 c -64,-67 -158,-126 -176,-111 -12,9 -7,18 25,52 22,23 47,55 56,73 18,35 52,64 70,58 6,-3 24,-9 40,-15 z M 3045,4910 c 121,-21 270,-64 281,-81 3,-5 -21,-22 -53,-37 -48,-22 -72,-27 -138,-27 -70,0 -87,4 -142,33 -49,25 -67,41 -84,73 -21,42 -20,72 3,64 7,-2 67,-14 133,-25 z m 5258,-220 c 4,0 65,-49 135,-108 140,-119 375,-310 550,-446 108,-85 126,-105 136,-161 4,-23 0,-22 -57,22 -199,153 -496,414 -703,619 -77,76 -124,124 -104,107 20,-18 39,-33 43,-33 z m -5102,-52 c 45,-19 77,-56 65,-76 -3,-6 -22,-6 -48,-1 -24,4 -72,8 -108,9 -75,0 -113,19 -108,53 7,50 101,57 199,15 z m 3795,17 c 4,-8 0,-23 -7,-32 -18,-22 -117,-65 -199,-88 -82,-22 -160,-61 -160,-80 0,-8 11,-22 25,-31 14,-9 25,-19 25,-23 0,-18 -199,-66 -321,-77 -76,-6 -77,-6 -158,36 -44,23 -81,46 -81,50 0,4 19,23 43,43 38,31 51,36 122,42 71,7 190,37 580,146 119,33 124,33 131,14 z M 3387,4401 c 105,-43 189,-61 290,-61 l 91,0 38,-37 c 22,-21 48,-44 59,-51 41,-26 -88,-3 -209,38 -65,21 -161,49 -214,60 -98,21 -116,30 -133,62 -13,24 -4,23 78,-11 z m 2672,-96 c 81,-28 161,-68 155,-76 -3,-5 -65,-9 -139,-9 -95,0 -166,-6 -242,-21 -90,-17 -114,-19 -148,-9 -55,16 -196,90 -190,100 3,4 69,11 147,15 78,4 178,13 222,19 83,12 117,9 195,-19 z m -723,-31 c 32,-19 65,-42 73,-49 29,-28 -27,-35 -176,-21 -113,11 -148,18 -191,40 -58,30 -65,43 -24,52 15,3 32,7 37,9 6,2 58,4 116,4 103,1 106,0 165,-35 z m 248,-152 c 3,-5 -31,-29 -75,-55 -74,-43 -89,-48 -195,-62 -155,-20 -317,-20 -334,0 -7,9 -11,17 -9,20 14,13 211,60 379,88 184,32 219,33 234,9 z m 3131,-44 c 8,-18 49,-202 90,-408 42,-206 78,-377 81,-381 2,-3 -3,-15 -11,-25 -12,-17 -15,-17 -28,-4 -9,9 -42,169 -86,415 -40,220 -74,408 -77,418 -9,30 16,18 31,-15 z m -71,-170 c 37,-204 102,-589 111,-660 6,-49 5,-59 -10,-64 -35,-14 -47,19 -71,207 -25,190 -57,471 -69,597 -12,124 10,80 39,-80 z m 201,55 c 4,-10 40,-153 80,-318 50,-211 69,-304 62,-313 -24,-30 -41,25 -103,325 -35,169 -64,311 -64,316 0,14 18,7 25,-10 z m 202,-369 c 34,-137 62,-255 63,-261 0,-21 -18,-15 -31,9 -9,17 -119,484 -119,506 0,2 6,2 13,0 7,-3 39,-111 74,-254 z"
       id="path10"
       inkscape:connector-curvature="0" />
    <path
       d="m 5256,7788 c -22,-31 -20,-91 2,-111 19,-17 88,-23 108,-9 34,22 43,84 18,120 -12,18 -25,22 -64,22 -39,0 -52,-4 -64,-22 z"
       id="path12"
       inkscape:connector-curvature="0" />
    <path
       d="m 5081,6834 c -28,-36 -27,-85 2,-112 54,-50 137,-10 137,66 0,50 -24,72 -78,72 -32,0 -45,-6 -61,-26 z"
       id="path14"
       inkscape:connector-curvature="0" />
    <path
       d="m 4554,6193 c -5,-4 -10,-33 -10,-63 0,-64 -20,-108 -115,-256 -101,-155 -71,-193 56,-73 129,123 196,247 179,335 -3,18 -12,38 -19,44 -17,14 -77,23 -91,13 z"
       id="path16"
       inkscape:connector-curvature="0" />
    <path
       d="m 5288,6092 -128,-3 0,-34 c 0,-24 7,-39 26,-54 23,-18 40,-21 123,-21 53,1 163,7 245,14 124,11 162,11 225,0 93,-17 185,-18 214,-3 31,16 77,61 77,75 0,8 -32,14 -102,18 -132,7 -516,12 -680,8 z"
       id="path18"
       inkscape:connector-curvature="0" />
    <path
       d="m 4651,5698 c -43,-28 -144,-47 -248,-48 l -81,0 -36,-42 c -55,-63 -51,-68 58,-68 95,0 124,-10 86,-30 -30,-16 -24,-37 11,-44 57,-11 243,-6 305,9 43,10 120,14 255,14 222,-1 327,14 424,60 70,32 147,97 143,119 -3,13 -88,52 -117,52 -7,0 -27,-11 -43,-26 -82,-68 -185,-97 -343,-97 -184,1 -290,30 -337,93 -26,36 -33,36 -77,8 z"
       id="path20"
       inkscape:connector-curvature="0" />
    <path
       d="m 6344,7540 c -35,-14 -54,-50 -54,-101 0,-41 4,-51 32,-74 27,-23 39,-26 77,-22 62,7 91,41 91,107 0,42 -4,52 -31,74 -32,27 -74,33 -115,16 z"
       id="path22"
       inkscape:connector-curvature="0" />
    <path
       d="m 7212,6168 c -20,-20 -14,-72 12,-107 56,-75 132,-124 252,-161 89,-26 159,-25 159,5 0,21 -15,31 -149,109 -47,27 -114,75 -151,107 -66,59 -99,71 -123,47 z"
       id="path24"
       inkscape:connector-curvature="0" />
    <path
       d="m 7706,5974 c -13,-33 -5,-51 42,-95 63,-61 90,-76 164,-94 73,-17 230,-20 259,-5 21,12 25,35 8,45 -5,4 -53,18 -105,31 -89,23 -206,74 -266,115 -33,24 -93,25 -102,3 z"
       id="path26"
       inkscape:connector-curvature="0" />
    <path
       d="m 4008,8261 c -25,-10 -60,-28 -76,-40 -24,-17 -45,-21 -100,-21 -118,0 -190,-38 -234,-124 -11,-22 -23,-60 -27,-85 -5,-40 -11,-48 -45,-67 -57,-32 -114,-91 -144,-149 -20,-39 -27,-69 -30,-137 -2,-48 0,-100 6,-115 8,-24 6,-33 -14,-57 -22,-24 -25,-25 -30,-9 -14,47 -42,89 -87,129 -27,24 -53,44 -58,44 -5,0 -9,22 -9,48 0,121 -80,242 -196,297 -46,22 -58,34 -73,68 -26,60 -113,151 -173,181 -71,36 -166,36 -230,2 l -45,-24 -54,19 c -83,28 -206,26 -268,-6 -136,-68 -188,-238 -117,-376 16,-29 26,-65 26,-90 0,-23 6,-60 12,-83 17,-56 110,-148 174,-171 70,-26 74,-31 74,-92 0,-65 15,-98 68,-145 57,-52 136,-78 233,-78 108,0 156,-27 92,-51 -16,-5 -45,-19 -66,-30 -25,-13 -58,-19 -99,-19 -100,0 -174,-26 -231,-81 -41,-40 -58,-49 -100,-54 -172,-24 -268,-119 -272,-271 -1,-66 -4,-76 -35,-110 -46,-53 -60,-93 -60,-174 0,-81 14,-121 60,-174 53,-60 95,-76 199,-76 109,0 185,25 245,80 39,36 45,38 121,42 131,6 215,64 242,169 9,31 13,34 56,41 124,17 215,124 217,252 0,38 6,56 24,75 39,42 66,102 66,148 0,41 -1,43 -30,43 -24,0 -32,-6 -43,-32 -16,-37 -89,-108 -112,-108 -11,0 -15,-12 -15,-45 0,-116 -94,-214 -206,-215 -40,0 -40,-1 -53,-48 -16,-64 -59,-115 -124,-147 -56,-27 -95,-32 -162,-21 -38,6 -41,4 -68,-35 -30,-44 -92,-78 -141,-79 -76,0 -146,67 -146,138 1,57 73,162 112,162 7,0 9,18 5,53 -17,143 62,220 241,234 66,5 74,9 87,32 34,66 97,98 223,115 53,7 111,20 129,29 17,9 71,23 120,31 105,18 153,33 153,51 0,7 -27,22 -60,34 -67,25 -119,70 -150,132 -25,48 -39,55 -77,36 -102,-52 -239,-3 -285,101 -19,43 -20,69 -2,128 5,19 1,23 -38,29 -51,8 -125,39 -151,63 -11,9 -30,39 -44,66 -22,42 -24,58 -19,106 5,46 3,60 -9,70 -26,22 -45,66 -45,106 0,71 102,135 189,119 20,-4 56,-18 81,-31 l 46,-25 54,25 c 69,33 82,32 155,-3 76,-36 115,-78 155,-164 25,-52 38,-68 58,-73 95,-23 143,-86 150,-202 5,-71 6,-75 35,-91 92,-49 150,-148 151,-258 1,-55 4,-65 32,-95 18,-18 48,-58 67,-88 65,-102 124,-140 229,-148 87,-6 142,14 199,72 36,38 48,44 98,50 147,17 275,125 320,270 17,57 19,58 70,76 61,20 131,84 161,145 28,58 28,166 -1,219 l -20,38 22,47 c 31,64 38,203 15,266 -21,55 -98,127 -154,143 -60,18 -189,14 -244,-7 z m 220,-138 c 7,-3 20,-19 29,-36 40,-78 36,-115 -22,-211 -19,-32 -35,-63 -35,-69 0,-5 12,-34 26,-64 22,-44 26,-63 22,-110 -4,-51 -9,-60 -49,-98 -33,-31 -59,-45 -99,-55 -59,-14 -70,-23 -70,-58 0,-38 -51,-131 -93,-169 -61,-55 -120,-78 -199,-76 -67,1 -68,1 -89,-34 -24,-38 -101,-93 -131,-93 -40,0 -98,40 -119,82 -27,53 -28,102 -1,154 20,39 76,97 103,106 10,3 7,23 -11,86 -21,73 -22,86 -11,135 19,87 59,141 130,174 54,25 61,31 61,57 0,57 24,111 70,157 57,57 119,77 182,60 87,-25 87,-25 97,0 13,33 63,78 97,88 19,6 41,3 64,-6 19,-8 41,-17 48,-20 z"
       id="path28"
       inkscape:connector-curvature="0" />
    <path
       d="m 3965,7856 c -151,-166 -299,-364 -412,-551 -60,-100 -65,-130 -19,-130 26,0 42,15 115,106 124,154 445,611 445,634 1,14 -6,21 -25,23 -22,3 -40,-11 -104,-82 z"
       id="path30"
       inkscape:connector-curvature="0" />
    <path
       d="m 2353,7914 c -7,-3 -13,-16 -13,-28 0,-16 24,-43 82,-92 101,-84 337,-294 436,-386 77,-73 108,-84 118,-43 5,20 -7,41 -64,112 -86,108 -257,275 -376,367 -71,55 -96,69 -130,72 -22,2 -47,1 -53,-2 z"
       id="path32"
       inkscape:connector-curvature="0" />
    <path
       d="m 2624,6876 c -158,-77 -327,-198 -456,-327 -46,-45 -58,-64 -58,-88 0,-48 29,-40 122,36 120,97 308,236 426,315 72,48 102,74 102,88 0,31 -36,25 -136,-24 z"
       id="path34"
       inkscape:connector-curvature="0" />
    <path
       d="m 8625,2540 c -595,-61 -676,-71 -702,-83 -38,-17 -53,-57 -53,-142 0,-71 2,-79 29,-106 l 29,-29 562,0 c 604,0 613,1 642,52 9,16 13,64 13,150 l 0,128 -30,30 c -22,22 -42,31 -75,34 -25,3 -211,-13 -415,-34 z m 395,-95 c 17,-21 18,-118 1,-138 -12,-15 -61,-17 -522,-17 -485,0 -509,1 -518,19 -25,47 -17,48 494,100 566,57 529,55 545,36 z"
       id="path36"
       inkscape:connector-curvature="0" />
    <path
       d="m 2160,2523 c -17,-14 -35,-36 -40,-47 -4,-12 -9,-414 -11,-894 l -4,-872 33,-32 32,-33 169,0 c 156,0 172,2 198,21 53,40 53,33 53,549 0,410 2,477 14,465 8,-8 143,-226 301,-485 158,-259 302,-485 320,-504 30,-30 39,-34 121,-43 49,-5 136,-7 193,-3 99,7 105,9 140,40 l 36,33 5,719 c 3,395 9,724 13,731 6,9 273,12 1277,12 l 1269,0 27,23 c 22,19 29,36 36,88 4,35 5,92 2,126 -5,51 -11,66 -36,90 l -29,28 -1457,3 c -1410,3 -1458,2 -1491,-16 -68,-37 -67,-32 -74,-523 -4,-244 -10,-446 -15,-451 -5,-5 -127,186 -272,424 -326,535 -333,546 -376,564 -24,10 -82,14 -218,14 l -184,0 -32,-27 z m 373,-96 c 12,-8 182,-279 377,-601 195,-323 367,-601 382,-619 22,-27 29,-30 45,-21 17,11 18,45 25,605 5,348 12,603 18,617 l 10,22 1409,0 c 1596,0 1447,9 1438,-83 -2,-27 -11,-53 -18,-58 -8,-5 -560,-9 -1283,-9 -1270,1 -1270,1 -1290,-20 -21,-20 -21,-31 -28,-752 -6,-686 -7,-733 -24,-745 -29,-21 -220,-18 -262,5 -27,14 -95,119 -388,602 -195,322 -367,602 -381,623 -27,39 -66,50 -77,21 -3,-9 -6,-292 -6,-630 l 0,-614 -26,-10 c -34,-13 -190,-13 -215,0 -19,10 -19,28 -18,708 1,383 4,758 8,832 6,132 6,134 31,142 43,13 248,1 273,-15 z"
       id="path38"
       inkscape:connector-curvature="0" />
    <path
       d="m 6622,2540 c -101,-15 -106,-28 -112,-285 l -5,-210 -25,-3 c -87,-10 -110,-49 -110,-187 0,-97 0,-97 34,-131 20,-20 44,-34 58,-34 48,0 48,-3 48,-356 0,-363 4,-396 63,-497 37,-62 134,-148 193,-171 61,-24 305,-35 372,-17 76,21 82,34 82,170 0,112 -1,121 -25,149 -21,25 -34,30 -89,35 -90,9 -142,37 -156,84 -7,25 -10,137 -8,318 l 3,280 108,6 c 100,5 109,7 135,32 26,26 27,33 30,142 l 4,115 -29,29 c -26,26 -37,29 -128,36 -55,4 -106,12 -112,17 -10,8 -13,62 -13,209 l 0,199 -29,32 c -23,26 -38,33 -87,39 -73,9 -134,9 -202,-1 z m 194,-121 c 11,-9 14,-61 14,-245 l 0,-234 123,0 c 152,0 159,-4 155,-80 l -3,-55 -137,-3 -138,-3 0,-357 c 0,-225 4,-372 11,-397 6,-23 28,-58 51,-82 40,-40 71,-54 160,-68 43,-7 68,-36 68,-78 0,-69 -45,-86 -187,-68 -178,22 -274,111 -312,289 -7,34 -11,182 -11,407 l 0,355 -54,0 c -67,0 -78,12 -74,82 l 3,53 68,3 67,3 0,234 c 0,282 -4,271 108,261 41,-3 81,-11 88,-17 z"
       id="path40"
       inkscape:connector-curvature="0" />
    <path
       d="m 7367,2540 c -49,-9 -76,-36 -87,-86 -5,-22 -10,-420 -10,-892 l 0,-854 28,-28 c 23,-23 41,-29 97,-35 85,-9 231,-1 267,16 15,6 31,23 37,38 6,16 12,358 16,896 5,703 3,875 -7,895 -24,46 -71,60 -193,59 -60,-1 -127,-5 -148,-9 z m 221,-116 22,-15 0,-810 c 0,-540 -3,-817 -10,-830 -9,-16 -22,-19 -93,-19 -59,0 -89,5 -105,16 l -22,15 0,814 c 0,726 2,815 16,829 22,22 161,22 192,0 z"
       id="path42"
       inkscape:connector-curvature="0" />
    <path
       d="m 4292,2080 c -120,-32 -206,-83 -302,-179 -147,-148 -203,-295 -203,-536 0,-123 4,-151 27,-230 41,-137 78,-198 181,-301 108,-109 193,-155 338,-185 103,-21 161,-23 260,-9 266,39 505,240 510,431 2,44 -2,54 -26,75 -27,23 -34,24 -175,24 -167,0 -184,-5 -241,-72 -39,-45 -119,-88 -167,-88 -48,0 -148,55 -177,98 -36,52 -51,88 -44,106 6,14 52,16 399,16 454,0 452,0 476,80 18,61 0,247 -34,350 -69,206 -258,377 -471,424 -99,22 -258,20 -351,-4 z m 337,-111 c 79,-25 197,-95 247,-145 55,-56 123,-177 149,-266 9,-32 17,-93 18,-135 l 2,-78 -458,-3 -459,-2 7,-53 c 18,-154 48,-220 138,-303 77,-73 122,-89 234,-82 102,6 159,32 227,103 l 53,56 87,1 c 113,1 124,-8 92,-70 -32,-63 -128,-153 -204,-191 -117,-59 -273,-77 -397,-46 -86,22 -214,88 -276,144 -64,57 -126,161 -165,276 -23,68 -27,97 -28,190 0,123 16,200 64,299 84,175 259,302 445,324 65,8 167,-1 224,-19 z"
       id="path44"
       inkscape:connector-curvature="0" />
    <path
       d="m 4363,1821 c -28,-9 -67,-30 -87,-44 -71,-55 -136,-181 -136,-266 l 0,-40 303,-3 c 166,-2 313,0 327,3 24,5 25,9 24,80 -1,92 -22,137 -99,207 -88,80 -213,104 -332,63 z m 205,-117 c 53,-26 102,-82 102,-116 0,-17 -15,-18 -194,-18 -115,0 -197,4 -201,10 -8,13 18,60 52,92 66,63 156,75 241,32 z"
       id="path46"
       inkscape:connector-curvature="0" />
    <path
       d="m 5674,2090 c -211,-22 -361,-117 -437,-277 -30,-64 -32,-74 -32,-183 0,-110 1,-118 33,-182 39,-80 111,-149 197,-189 33,-16 145,-49 248,-74 103,-25 201,-52 217,-60 66,-34 60,-88 -12,-121 -54,-24 -122,-22 -186,6 -43,18 -61,34 -90,79 -21,30 -48,61 -62,68 -18,10 -68,13 -178,11 l -154,-3 -25,-29 c -23,-27 -25,-36 -21,-97 3,-40 14,-85 27,-112 52,-108 188,-215 335,-264 76,-26 92,-28 256,-28 158,0 182,2 245,24 95,32 171,79 232,144 91,96 129,209 120,354 -7,97 -29,154 -87,223 -83,99 -168,137 -446,201 -161,36 -211,54 -225,80 -33,63 113,108 214,65 21,-8 62,-41 91,-73 l 53,-57 151,0 152,-1 27,28 c 25,25 28,34 27,91 -1,48 -8,78 -28,119 -34,70 -130,160 -210,198 -107,51 -280,74 -432,59 z m 267,-125 c 126,-33 227,-104 268,-189 36,-73 33,-76 -67,-76 l -87,0 -66,64 c -79,76 -126,91 -262,84 -73,-4 -93,-9 -134,-34 -57,-35 -83,-81 -83,-144 0,-96 50,-138 205,-176 61,-14 155,-37 210,-50 203,-50 293,-114 334,-237 27,-77 26,-127 0,-205 -51,-152 -211,-255 -417,-268 -166,-11 -358,48 -461,141 -42,38 -107,157 -96,175 3,6 47,10 96,10 90,0 91,0 117,-32 101,-122 154,-148 306,-148 75,0 100,4 142,24 82,38 121,106 111,193 -11,97 -60,130 -265,178 -352,82 -434,133 -477,302 -47,185 108,365 349,404 70,11 201,3 277,-16 z"
       id="path48"
       inkscape:connector-curvature="0" />
    <path
       d="m 8292,2080 c -127,-34 -197,-75 -297,-175 -150,-150 -210,-304 -208,-540 1,-248 61,-396 225,-550 266,-250 705,-244 969,15 72,71 122,169 123,243 1,41 -3,52 -27,73 -27,23 -34,24 -171,24 -79,0 -157,-5 -174,-11 -17,-6 -48,-31 -68,-56 -41,-50 -119,-93 -170,-93 -48,0 -148,55 -177,98 -32,46 -50,91 -43,109 4,10 80,13 394,13 258,0 400,4 421,11 59,21 75,82 60,234 -19,200 -82,332 -221,460 -82,76 -176,125 -285,149 -99,22 -258,20 -351,-4 z m 283,-95 c 101,-21 239,-92 302,-156 98,-98 166,-261 167,-399 l 1,-85 -452,-3 -453,-2 0,-41 c 0,-154 94,-316 217,-374 52,-25 149,-30 222,-11 74,19 111,42 168,105 l 42,46 83,3 c 62,3 88,0 103,-12 20,-15 20,-15 -4,-60 -34,-65 -138,-161 -214,-196 -172,-81 -342,-78 -522,10 -146,71 -233,171 -297,342 -40,107 -49,256 -24,370 53,236 225,414 449,463 82,18 127,18 212,0 z"
       id="path50"
       inkscape:connector-curvature="0" />
    <path
       d="m 8361,1818 c -106,-41 -197,-167 -208,-289 l -6,-58 304,-3 c 167,-2 315,0 329,3 24,5 25,9 24,80 -1,92 -22,137 -99,207 -90,83 -225,106 -344,60 z m 214,-111 c 22,-10 48,-27 59,-36 23,-20 57,-86 49,-95 -11,-10 -391,-7 -398,4 -13,22 48,100 100,127 69,36 117,36 190,0 z"
       id="path52"
       inkscape:connector-curvature="0" />
  </g>
</svg>
