<svg id="Ebene_1" data-name="Ebene 1" xmlns="http://www.w3.org/2000/svg" viewBox="0 0 192 172.47"><defs><style>.cls-1{fill:#fff;}</style></defs><title>TUEV_Bildmarke</title><path id="path3796" class="cls-1" d="M190.79,173.93,179,153.5a204.89,204.89,0,0,0-35-3,192,192,0,0,0-48,6,189.65,189.65,0,0,1-48,6.12,168.17,168.17,0,0,1-17.29-.83L96,48.75l39.44,68.16A191.9,191.9,0,0,0,96,122.73a187.85,187.85,0,0,1-28.48,5L55.64,148.32A198.06,198.06,0,0,0,96,142.46a190.7,190.7,0,0,1,48-6,200.21,200.21,0,0,1,26.13,1.72l-12.49-21.64-32.3-55.95L96,9.76,0,176a181.86,181.86,0,0,0,48,6.2A181.52,181.52,0,0,0,96,176a195.47,195.47,0,0,1,96,0Z" transform="translate(0 -9.76)"/></svg>